<svg width="72" height="18" viewBox="0 0 80 20" fill="none" xmlns="http://www.w3.org/2000/svg">
  <path
    d="M14.119 0.988234V4.55023H9.28295V19.2402H4.83695V4.55023H0.00095313V0.988234H14.119ZM14.9463 11.9602C14.9463 10.4696 15.2236 9.1609 15.7783 8.03423C16.3503 6.90757 17.1216 6.0409 18.0923 5.43423C19.0629 4.82757 20.1463 4.52423 21.3423 4.52423C22.3649 4.52423 23.2576 4.73223 24.0203 5.14823C24.8003 5.56423 25.3983 6.11023 25.8143 6.78623V4.73223H30.2603V19.2402H25.8143V17.1862C25.3809 17.8622 24.7743 18.4082 23.9943 18.8242C23.2316 19.2402 22.3389 19.4482 21.3163 19.4482C20.1376 19.4482 19.0629 19.1449 18.0923 18.5382C17.1216 17.9142 16.3503 17.0389 15.7783 15.9122C15.2236 14.7682 14.9463 13.4509 14.9463 11.9602ZM25.8143 11.9862C25.8143 10.8769 25.5023 10.0016 24.8783 9.36023C24.2716 8.7189 23.5263 8.39823 22.6423 8.39823C21.7583 8.39823 21.0043 8.7189 20.3803 9.36023C19.7736 9.98423 19.4703 10.8509 19.4703 11.9602C19.4703 13.0696 19.7736 13.9536 20.3803 14.6122C21.0043 15.2536 21.7583 15.5742 22.6423 15.5742C23.5263 15.5742 24.2716 15.2536 24.8783 14.6122C25.5023 13.9709 25.8143 13.0956 25.8143 11.9862ZM37.4028 0.000234127V19.2402H32.9568V0.000234127H37.4028ZM48.9707 19.2402L44.5507 13.1562V19.2402H40.1047V0.000234127H44.5507V10.6342L48.9447 4.73223H54.4307L48.3987 12.0122L54.4827 19.2402H48.9707ZM69.333 11.7522C69.333 12.1682 69.307 12.6016 69.255 13.0522H59.193C59.2623 13.9536 59.5483 14.6469 60.051 15.1322C60.571 15.6002 61.2037 15.8342 61.949 15.8342C63.0583 15.8342 63.8297 15.3662 64.263 14.4302H68.995C68.7523 15.3836 68.3103 16.2416 67.669 17.0042C67.045 17.7669 66.2563 18.3649 65.303 18.7982C64.3497 19.2316 63.2837 19.4482 62.105 19.4482C60.6837 19.4482 59.4183 19.1449 58.309 18.5382C57.1997 17.9316 56.333 17.0649 55.709 15.9382C55.085 14.8116 54.773 13.4942 54.773 11.9862C54.773 10.4782 55.0763 9.1609 55.683 8.03423C56.307 6.90757 57.1737 6.0409 58.283 5.43423C59.3923 4.82757 60.6663 4.52423 62.105 4.52423C63.509 4.52423 64.757 4.8189 65.849 5.40823C66.941 5.99757 67.7903 6.83823 68.397 7.93023C69.021 9.02223 69.333 10.2962 69.333 11.7522ZM64.783 10.5822C64.783 9.81957 64.523 9.2129 64.003 8.76223C63.483 8.31157 62.833 8.08623 62.053 8.08623C61.3077 8.08623 60.675 8.3029 60.155 8.73623C59.6523 9.16957 59.3403 9.7849 59.219 10.5822H64.783ZM79.2445 15.4702V19.2402H76.9825C75.3705 19.2402 74.1138 18.8502 73.2125 18.0702C72.3112 17.2729 71.8605 15.9816 71.8605 14.1962V8.42423H70.0925V4.73223H71.8605V1.19623H76.3065V4.73223H79.2185V8.42423H76.3065V14.2482C76.3065 14.6816 76.4105 14.9936 76.6185 15.1842C76.8265 15.3749 77.1732 15.4702 77.6585 15.4702H79.2445Z"
    fill="#6B53E8" />
</svg>