<svg width="96" height="24" viewBox="0 0 96 24" stroke="#6B53E8" fill="#6B53E8" xmlns="http://www.w3.org/2000/svg">
  <path
    d="M17.01 1.94V6.05H11.43V23H6.3V6.05H0.72V1.94H17.01ZM18.5646 14.6C18.5646 12.88 18.8846 11.37 19.5246 10.07C20.1846 8.77 21.0746 7.77 22.1946 7.07C23.3146 6.37 24.5646 6.02 25.9446 6.02C27.1246 6.02 28.1546 6.26 29.0346 6.74C29.9346 7.22 30.6246 7.85 31.1046 8.63V6.26H36.2346V23H31.1046V20.63C30.6046 21.41 29.9046 22.04 29.0046 22.52C28.1246 23 27.0946 23.24 25.9146 23.24C24.5546 23.24 23.3146 22.89 22.1946 22.19C21.0746 21.47 20.1846 20.46 19.5246 19.16C18.8846 17.84 18.5646 16.32 18.5646 14.6ZM31.1046 14.63C31.1046 13.35 30.7446 12.34 30.0246 11.6C29.3246 10.86 28.4646 10.49 27.4446 10.49C26.4246 10.49 25.5546 10.86 24.8346 11.6C24.1346 12.32 23.7846 13.32 23.7846 14.6C23.7846 15.88 24.1346 16.9 24.8346 17.66C25.5546 18.4 26.4246 18.77 27.4446 18.77C28.4646 18.77 29.3246 18.4 30.0246 17.66C30.7446 16.92 31.1046 15.91 31.1046 14.63ZM45.0759 0.8V23H39.9459V0.8H45.0759ZM59.0236 23L53.9236 15.98V23H48.7936V0.8H53.9236V13.07L58.9936 6.26H65.3236L58.3636 14.66L65.3836 23H59.0236ZM83.1185 14.36C83.1185 14.84 83.0885 15.34 83.0285 15.86H71.4185C71.4985 16.9 71.8285 17.7 72.4085 18.26C73.0085 18.8 73.7385 19.07 74.5985 19.07C75.8785 19.07 76.7685 18.53 77.2685 17.45H82.7285C82.4485 18.55 81.9385 19.54 81.1985 20.42C80.4785 21.3 79.5685 21.99 78.4685 22.49C77.3685 22.99 76.1385 23.24 74.7785 23.24C73.1385 23.24 71.6785 22.89 70.3985 22.19C69.1185 21.49 68.1185 20.49 67.3985 19.19C66.6785 17.89 66.3185 16.37 66.3185 14.63C66.3185 12.89 66.6685 11.37 67.3685 10.07C68.0885 8.77 69.0885 7.77 70.3685 7.07C71.6485 6.37 73.1185 6.02 74.7785 6.02C76.3985 6.02 77.8385 6.36 79.0985 7.04C80.3585 7.72 81.3385 8.69 82.0385 9.95C82.7585 11.21 83.1185 12.68 83.1185 14.36ZM77.8685 13.01C77.8685 12.13 77.5685 11.43 76.9685 10.91C76.3685 10.39 75.6185 10.13 74.7185 10.13C73.8585 10.13 73.1285 10.38 72.5285 10.88C71.9485 11.38 71.5885 12.09 71.4485 13.01H77.8685ZM95.1548 18.65V23H92.5448C90.6848 23 89.2348 22.55 88.1948 21.65C87.1548 20.73 86.6348 19.24 86.6348 17.18V10.52H84.5948V6.26H86.6348V2.18H91.7648V6.26H95.1248V10.52H91.7648V17.24C91.7648 17.74 91.8848 18.1 92.1248 18.32C92.3648 18.54 92.7648 18.65 93.3248 18.65H95.1548Z" />
</svg>